<svg id="Ebene_1" data-name="Ebene 1" xmlns="http://www.w3.org/2000/svg" viewBox="0 0 500 500"><defs><style>.cls-1{fill:#b9d6f2;stroke-width:5px;}.cls-1,.cls-2{stroke:#121111;stroke-miterlimit:10;}.cls-2{fill:#ffbf00;stroke-width:4px;}</style></defs><title>5Zeichenfläche 1</title><path class="cls-1" d="M446,187l-20.51,14.47a4.62,4.62,0,0,1-6.45-1.11L384.2,150.94a4.62,4.62,0,0,1,1.11-6.45L405.82,130a18.52,18.52,0,0,1,25.76,4.45l18.86,26.74A18.45,18.45,0,0,1,446,187Z"/><rect class="cls-2" x="106.53" y="290.44" width="122.06" height="33.06" rx="7.63" ry="7.63"/><path class="cls-2" d="M288.74,238.59h0a5.51,5.51,0,0,0,.88,1v-8.19A5.43,5.43,0,0,0,288.74,238.59Z"/><polygon class="cls-2" points="259.57 285.7 285.16 285.73 287.62 271.76 269.15 268.5 272.4 250.03 259.11 247.69 259.11 285.04 259.57 285.7"/><path class="cls-2" d="M259.11,298.21V382H76V117.52H177.73v66.12A15.22,15.22,0,0,0,193,198.89h66.12v33.47L289.63,211V170.85a30.41,30.41,0,0,0-9-21.55L227.32,96a30.52,30.52,0,0,0-21.55-9H76A30.52,30.52,0,0,0,45.5,117.52V382A30.52,30.52,0,0,0,76,412.5H259.11A30.52,30.52,0,0,0,289.63,382V297.38l-1.23.86ZM208.25,120l48.38,48.38H208.25Z"/><rect class="cls-2" x="106.53" y="237.04" width="122.06" height="33.06" rx="7.63" ry="7.63"/><path class="cls-2" d="M231.38,285.62a9.39,9.39,0,0,0,8.81,12.58l18.92,0V285l-9.39-13.41,8.72-24.05.67.12V232.36l-11.33,7.94Z"/><path class="cls-2" d="M408.4,208.45l-35.19-50.24a4.74,4.74,0,0,0-6.58-1.16l-77,53.94v20.38a5.45,5.45,0,0,1,.46-.4l69.7-48.82a5.47,5.47,0,1,1,6.28,9l-69.7,48.82a5.43,5.43,0,0,1-6.74-.38v57.82L407.25,215A4.69,4.69,0,0,0,408.4,208.45Z"/></svg>