<?xml version="1.0" standalone="no"?>
<!DOCTYPE svg PUBLIC "-//W3C//DTD SVG 20010904//EN"
 "http://www.w3.org/TR/2001/REC-SVG-20010904/DTD/svg10.dtd">
<svg version="1.0" xmlns="http://www.w3.org/2000/svg"
 width="521.000000pt" height="521.000000pt" viewBox="0 0 521.000000 521.000000"
 preserveAspectRatio="xMidYMid meet">
<metadata>
Created by potrace 1.11, written by Peter Selinger 2001-2013
</metadata>
<g transform="translate(0.000000,521.000000) scale(0.100000,-0.100000)"
fill="#000000" stroke="none">
<path d="M2286 5154 c-582 -77 -1094 -321 -1500 -714 -422 -409 -677 -906
-762 -1485 -18 -122 -28 -437 -17 -522 l8 -62 560 687 c520 638 562 687 593
690 42 4 72 -21 72 -59 0 -21 -130 -186 -601 -765 l-602 -737 13 -71 c7 -39
27 -124 46 -188 123 -430 332 -787 648 -1104 147 -148 294 -271 306 -257 4 4
53 129 110 276 57 147 106 270 110 272 3 2 26 -9 51 -25 24 -17 48 -31 54 -33
10 -4 -1 -36 -128 -360 l-85 -218 61 -40 c91 -59 302 -164 432 -214 147 -58
332 -109 515 -142 133 -24 168 -27 420 -27 220 -1 299 3 395 18 152 23 392 84
521 131 128 47 397 179 496 244 71 46 77 52 69 73 -5 13 -57 140 -115 283 -58
143 -105 263 -104 266 2 4 26 25 54 47 l51 40 108 -266 c59 -147 113 -277 120
-290 11 -23 13 -21 121 71 200 172 344 335 486 552 169 257 293 548 353 831
l18 81 -588 764 c-324 420 -595 776 -604 790 -28 49 21 107 77 92 13 -3 243
-293 579 -730 502 -653 558 -722 566 -701 15 36 13 439 -1 553 -99 758 -500
1406 -1132 1827 -147 98 -396 225 -554 283 -129 47 -370 108 -516 130 -157 24
-554 29 -704 9z m634 -437 c316 -75 565 -220 805 -468 56 -57 123 -135 149
-172 l48 -68 -37 -57 c-434 -656 -1321 -878 -2015 -505 -219 118 -460 333
-586 523 l-26 38 35 54 c103 161 250 309 422 424 211 140 413 216 690 258 17
2 116 3 220 1 160 -3 206 -7 295 -28z m-748 -1524 c10 -9 18 -29 18 -47 -1
-17 -60 -183 -133 -368 l-132 -337 -62 -40 c-125 -81 -192 -212 -180 -353 l6
-70 -37 7 c-20 4 -38 8 -40 9 -9 9 457 1190 475 1204 23 17 63 15 85 -5z m953
-13 c19 -21 198 -450 191 -457 -2 -3 -17 2 -33 10 -15 8 -51 22 -79 31 l-52
17 -71 175 c-39 97 -71 179 -71 184 0 4 9 19 21 34 25 32 68 35 94 6z m18
-409 c6 -6 165 -389 353 -852 l341 -840 -36 -18 c-95 -47 -71 -46 -1211 -46
-1002 0 -1079 1 -1132 18 -32 10 -58 23 -58 30 0 7 118 316 263 687 301 772
261 704 407 705 100 0 170 -21 235 -70 l43 -34 35 72 c88 186 254 310 478 357
59 12 267 6 282 -9z m349 -200 c139 -150 196 -362 152 -562 -5 -24 -3 -26 53
-38 170 -38 306 -156 365 -319 30 -81 30 -225 0 -307 -22 -59 -86 -165 -100
-165 -5 0 -544 1312 -619 1508 -11 28 82 -45 149 -117z m-1902 -598 c0 -13
-317 -823 -325 -831 -8 -8 -64 58 -104 123 -57 94 -77 240 -47 350 44 167 182
303 353 350 54 15 123 19 123 8z"/>
<path d="M2081 4306 c-8 -9 -11 -100 -9 -312 l3 -299 228 -3 227 -2 0 60 0 60
-155 0 -155 0 0 70 0 69 133 3 132 3 3 43 c5 68 -3 72 -144 72 l-124 0 0 60 0
59 153 3 152 3 3 48 c5 78 8 77 -228 77 -164 0 -210 -3 -219 -14z"/>
<path d="M2587 4313 c-4 -3 -7 -95 -7 -203 0 -224 9 -272 65 -337 55 -64 113
-88 215 -88 72 0 93 4 135 26 28 14 64 44 82 68 55 71 64 122 61 342 l-3 194
-53 3 c-30 2 -60 -2 -67 -8 -10 -8 -14 -59 -17 -203 -3 -171 -5 -196 -23 -227
-39 -66 -127 -87 -191 -45 -53 34 -64 82 -64 281 0 126 -4 184 -12 192 -13 13
-110 17 -121 5z"/>
<path d="M1814 4178 l-19 -23 23 19 c21 18 27 26 19 26 -2 0 -12 -10 -23 -22z"/>
<path d="M3385 4180 c10 -11 20 -20 23 -20 3 0 -3 9 -13 20 -10 11 -20 20 -23
20 -3 0 3 -9 13 -20z"/>
<path d="M1679 4043 c-13 -16 -12 -17 4 -4 9 7 17 15 17 17 0 8 -8 3 -21 -13z"/>
<path d="M3469 3913 l-24 -28 28 24 c25 23 32 31 24 31 -2 0 -14 -12 -28 -27z"/>
<path d="M1745 3860 c21 -22 41 -40 44 -40 3 0 -13 18 -34 40 -21 22 -41 40
-44 40 -3 0 13 -18 34 -40z"/>
<path d="M1830 3786 c0 -2 8 -10 18 -17 15 -13 16 -12 3 4 -13 16 -21 21 -21
13z"/>
<path d="M2578 3503 c6 -2 18 -2 25 0 6 3 1 5 -13 5 -14 0 -19 -2 -12 -5z"/>
<path d="M3043 1853 c-36 -33 -170 -188 -182 -211 -15 -29 -7 -56 26 -82 33
-26 63 -25 97 1 l26 20 0 -146 c0 -142 1 -147 25 -170 30 -31 73 -32 103 -5
31 29 34 49 30 198 -2 73 -2 132 -1 132 1 0 13 -11 27 -25 33 -33 79 -33 111
0 38 37 32 66 -27 137 -104 124 -152 168 -185 168 -17 0 -40 -8 -50 -17z"/>
<path d="M1797 1483 c-4 -3 -7 -29 -7 -57 0 -130 30 -176 110 -176 42 0 52 4
74 31 24 28 26 38 26 120 0 70 -3 89 -14 89 -11 0 -15 -21 -18 -91 -3 -102
-14 -119 -74 -119 -50 0 -64 28 -64 127 0 63 -3 83 -13 83 -8 0 -17 -3 -20 -7z"/>
<path d="M2260 1386 c0 -57 3 -111 6 -120 8 -22 74 -22 74 -1 0 8 -9 15 -20
15 -19 0 -20 7 -20 105 0 98 -1 105 -20 105 -19 0 -20 -7 -20 -104z"/>
<path d="M2890 1445 l0 -46 -30 16 c-16 8 -36 15 -45 15 -26 0 -75 -55 -75
-85 0 -33 24 -81 45 -89 26 -9 83 -7 90 4 4 6 13 5 25 -2 11 -7 21 -10 22 -8
2 3 2 58 0 123 -3 92 -7 117 -18 117 -10 0 -14 -13 -14 -45z m-19 -66 c29 -29
23 -79 -12 -98 -24 -13 -29 -13 -53 2 -34 23 -37 78 -4 101 30 21 44 20 69 -5z"/>
<path d="M2108 1416 c-16 -8 -28 -11 -28 -5 0 5 -7 9 -15 9 -12 0 -15 -20 -15
-120 0 -113 1 -120 20 -120 17 0 20 7 20 47 0 37 3 44 12 35 7 -7 29 -12 49
-12 76 0 107 94 50 151 -33 32 -53 36 -93 15z m66 -31 c22 -22 29 -52 16 -74
-32 -61 -100 -41 -100 29 0 54 48 80 84 45z"/>
<path d="M2393 1411 c-79 -49 -43 -161 50 -161 57 0 87 30 87 86 0 74 -74 114
-137 75z m87 -31 c52 -52 -13 -138 -70 -92 -30 24 -30 70 0 94 29 23 45 23 70
-2z"/>
<path d="M2587 1419 c-27 -11 -33 -38 -6 -30 8 3 30 5 49 5 29 1 36 -3 38 -21
3 -21 -1 -23 -42 -23 -65 0 -91 -32 -66 -81 12 -21 68 -26 101 -9 13 7 19 7
19 0 0 -5 9 -10 21 -10 15 0 19 4 15 16 -3 9 -6 37 -6 64 0 78 -52 115 -123
89z m81 -111 c-4 -32 -52 -48 -75 -26 -26 27 -9 48 37 48 37 0 41 -2 38 -22z"/>
</g>
</svg>
