<svg id="Ebene_1" data-name="Ebene 1" xmlns="http://www.w3.org/2000/svg" viewBox="0 0 452 452"><defs><style>.cls-1{fill:#b9d6f2;stroke:#142e4d;stroke-miterlimit:10;stroke-width:17px;}.cls-2{fill:#ffbf00;}.cls-3{fill:#142e4d;}</style></defs><title>Call</title><circle class="cls-1" cx="226" cy="226" r="217.5"/><path class="cls-2" d="M283,432.92l-.52,0A226.77,226.77,0,0,1,76,187.53a6,6,0,0,1,5.17-5.46l53-7.53a6.11,6.11,0,0,1,.86-.06,6,6,0,0,1,5.73,4.15l19.18,58a6.07,6.07,0,0,1-2.33,6.88L121.3,268.38l1.62,4.39a191.41,191.41,0,0,0,83.61,99.33l4,2.34,30.65-31.52a6,6,0,0,1,7.18-1.12l53.92,28.8a6,6,0,0,1,2.9,7.18l-16.46,51A6,6,0,0,1,283,432.92Zm4.69-237.39-5.61-.36a2.43,2.43,0,0,1-2.27-2.4,118.24,118.24,0,0,0-97.62-116,2.43,2.43,0,0,1-2-2.65l.6-5.59a2.46,2.46,0,0,1,2.41-2.19,2.53,2.53,0,0,1,.43,0A128.54,128.54,0,0,1,290.3,193.1a2.37,2.37,0,0,1-.71,1.71,2.43,2.43,0,0,1-1.72.72Zm-44.91-3-5.63-.37a2.39,2.39,0,0,1-2.27-2.24,73.47,73.47,0,0,0-57.55-68.37,2.39,2.39,0,0,1-1.82-2.62l.6-5.61a2.44,2.44,0,0,1,2.42-2.18,2.52,2.52,0,0,1,.52.06A83.77,83.77,0,0,1,245.4,190a2.45,2.45,0,0,1-2.43,2.54Zm-45.3-3-5.79-.37a2.46,2.46,0,0,1-2.24-2,28.44,28.44,0,0,0-17.12-20.34,2.46,2.46,0,0,1-1.58-2.54l.62-5.76a2.44,2.44,0,0,1,2.42-2.18,2.47,2.47,0,0,1,.82.14,38.84,38.84,0,0,1,25.42,30.2,2.44,2.44,0,0,1-2.39,2.85Z" transform="translate(-24 -24)"/><path class="cls-3" d="M135,168.48l0,12L154.2,238.6l-32.43,22.19-7.72,5.28,3.23,8.77a197.42,197.42,0,0,0,86.23,102.45l8.09,4.68,6.52-6.7,27.44-28.18,53.92,28.8,5.65-10.58-5.64,10.63-16.46,51,11.42,3.69L283,426.92A220.59,220.59,0,0,1,81.94,188l-12-1,12,1,53-7.53h0v-12M183.23,60.36a8.44,8.44,0,0,0-8.37,7.54l-.6,5.59a8.42,8.42,0,0,0,6.89,9.2,112.24,112.24,0,0,1,92.67,110.09,8.42,8.42,0,0,0,7.89,8.36l5.61.36.55,0a8.44,8.44,0,0,0,8.43-8.44A134.69,134.69,0,0,0,184.69,60.49h0a8.47,8.47,0,0,0-1.46-.13Zm-4.68,44.76a8.45,8.45,0,0,0-8.39,7.54l-.6,5.61a8.4,8.4,0,0,0,6.5,9.12,67.34,67.34,0,0,1,52.84,62.78,8.4,8.4,0,0,0,7.88,8l5.63.37.56,0a8.45,8.45,0,0,0,8.42-8.77,89.8,89.8,0,0,0-71.07-84.44,8.5,8.5,0,0,0-1.77-.19Zm-4.73,45.16a8.45,8.45,0,0,0-8.39,7.54l-.62,5.76a8.47,8.47,0,0,0,5.29,8.74,22.46,22.46,0,0,1,13.51,16,8.47,8.47,0,0,0,7.71,6.7l5.79.37.56,0a8.44,8.44,0,0,0,8.31-9.85,44.87,44.87,0,0,0-29.35-34.87,8.45,8.45,0,0,0-2.81-.48ZM135,168.48a12.09,12.09,0,0,0-1.7.12l-53,7.53A12,12,0,0,0,70,187c-11,128,83.8,240.84,212,251.86q.52,0,1,0a12,12,0,0,0,11.45-8.34l16.46-51a12,12,0,0,0-5.78-14.32l-53.92-28.8a12,12,0,0,0-14.3,2.23L209.53,366.9a186.08,186.08,0,0,1-81-96.21L161,248.5a12,12,0,0,0,4.63-13.72l-19.18-58A12,12,0,0,0,135,168.48Z" transform="translate(-24 -24)"/></svg>