<svg id="Ebene_1" data-name="Ebene 1" xmlns="http://www.w3.org/2000/svg" viewBox="0 0 382 501.33"><defs><style>.cls-1{fill:#142e4d;stroke:#b9d6f2;stroke-miterlimit:10;stroke-width:24px;}</style></defs><title>call2</title><path class="cls-1" d="M139.74,490c-121.08-121.08-120.9-317.21,0-438.11a16,16,0,0,1,19.82-2.26L220,87.37a16,16,0,0,1,6.39,19.54l-30.21,75.54a16,16,0,0,1-16.47,10l-52-5.2a247.65,247.65,0,0,0,0,167.36l52-5.2a16,16,0,0,1,16.47,10l30.21,75.54A16,16,0,0,1,220,454.46l-60.43,37.77A16,16,0,0,1,139.74,490ZM279.39,106.34a59.71,59.71,0,0,1,0,60.65,11.24,11.24,0,0,1-17.45,2.41l-5.57-5.34a11.27,11.27,0,0,1-2.11-13.43,29.89,29.89,0,0,0,0-27.92,11.27,11.27,0,0,1,2.11-13.43l5.57-5.34A11.24,11.24,0,0,1,279.39,106.34Zm85.57-85A179.25,179.25,0,0,1,365,252a11.23,11.23,0,0,1-16.36.87l-5.41-5.18a11.21,11.21,0,0,1-.87-15.27,149.38,149.38,0,0,0,0-191.51,11.21,11.21,0,0,1,.87-15.27l5.41-5.18a11.23,11.23,0,0,1,16.36.87Zm-42.86,41.9a119.51,119.51,0,0,1,0,146.88,11.24,11.24,0,0,1-16.65,1.22l-5.42-5.2a11.18,11.18,0,0,1-1.2-14.85,89.62,89.62,0,0,0,0-109.2A11.18,11.18,0,0,1,300,67.21l5.42-5.2a11.24,11.24,0,0,1,16.65,1.22Z" transform="translate(-37 -5.33)"/></svg>