<svg id="Ebene_1" data-name="Ebene 1" xmlns="http://www.w3.org/2000/svg" viewBox="0 0 452 452"><defs><style>.cls-1{fill:#b9d6f2;stroke:#142e4d;stroke-miterlimit:10;stroke-width:17px;}.cls-2{fill:#ffbf00;}.cls-3{fill:#142e4d;}</style></defs><title>Mail</title><circle class="cls-1" cx="226" cy="226" r="217.5"/><path class="cls-2" d="M278.63,417.86a11.94,11.94,0,0,1-8.25-3.34l-69.06-66.65-63,29.05a10.35,10.35,0,0,1-4.39,1,12.08,12.08,0,0,1-9.82-5.32,8.62,8.62,0,0,1-.79-8.45l18.9-44.24L365,217a9.31,9.31,0,0,0,5.36-10.61,10.35,10.35,0,0,0-10-8.12,10.6,10.6,0,0,0-2.9.41l-241,67.15-53.9-52.07c-2.85-2.76-3.85-6.37-2.67-9.64s4.15-5.22,8.21-5.54L427.52,170c.32,0,.64,0,1,0a11.74,11.74,0,0,1,10.24,6.1,8.1,8.1,0,0,1-.21,8.55L286.59,414a9.3,9.3,0,0,1-8,3.9Z" transform="translate(-24 -24)"/><path class="cls-3" d="M428.47,176a5.75,5.75,0,0,1,4.95,2.94c.74,1.39.29,2.07.07,2.41L281.61,410.61a3.7,3.7,0,0,1-3,1.25,5.91,5.91,0,0,1-4.09-1.67l-66.09-63.78-5.91-5.7-7.45,3.44-59.26,27.34a4.32,4.32,0,0,1-1.85.41,6.1,6.1,0,0,1-4.82-2.62,2.63,2.63,0,0,1-.28-2.79l18-42.12,220.61-101.9a15.39,15.39,0,0,0,8.73-17.35,16.39,16.39,0,0,0-15.89-12.84,16.59,16.59,0,0,0-4.48.62L118.15,259.13,66.74,209.47c-1.12-1.08-1.57-2.32-1.22-3.3.42-1.16,1.88-1.51,3-1.6L428,176l.47,0m0-12q-.71,0-1.43.06L67.62,192.61c-14,1.09-18.77,16.23-9.24,25.48l56.37,54.45,244.3-68.08a4.59,4.59,0,0,1,1.26-.18c3.94,0,6.12,5.46,2.15,7.29L137.64,315.41l-19.81,46.36C113,373,123,383.9,134,383.9a16.33,16.33,0,0,0,6.9-1.52L200.12,355l66.09,63.78a17.86,17.86,0,0,0,12.42,5,15.34,15.34,0,0,0,13-6.59L443.49,188c6.87-10.33-2.32-24-15-24Z" transform="translate(-24 -24)"/></svg>