<svg id="Ebene_1" data-name="Ebene 1" xmlns="http://www.w3.org/2000/svg" viewBox="0 0 452 452"><defs><style>.cls-1{fill:#b9d6f2;}.cls-1,.cls-4{stroke:#142e4d;stroke-miterlimit:10;stroke-width:17px;}.cls-2{fill:#ffbf00;}.cls-3{fill:#142e4d;}.cls-4{fill:none;}</style></defs><title>Share</title><circle class="cls-1" cx="226" cy="226" r="217.5"/><path class="cls-2" d="M113.5,261A36.5,36.5,0,1,1,150,224.5,36.54,36.54,0,0,1,113.5,261Z" transform="translate(-23.5 -23.5)"/><path class="cls-3" d="M113.5,194A30.5,30.5,0,1,1,83,224.5,30.53,30.53,0,0,1,113.5,194m0-12A42.5,42.5,0,1,0,156,224.5,42.5,42.5,0,0,0,113.5,182Z" transform="translate(-23.5 -23.5)"/><line class="cls-4" x1="303.5" y1="105.5" x2="123.5" y2="183.5"/><path class="cls-2" d="M330.5,164A36.5,36.5,0,1,1,367,127.5,36.54,36.54,0,0,1,330.5,164Z" transform="translate(-23.5 -23.5)"/><path class="cls-3" d="M330.5,97A30.5,30.5,0,1,1,300,127.5,30.53,30.53,0,0,1,330.5,97m0-12A42.5,42.5,0,1,0,373,127.5,42.5,42.5,0,0,0,330.5,85Z" transform="translate(-23.5 -23.5)"/><line class="cls-4" x1="346.97" y1="268.59" x2="186.03" y2="156.41"/><path class="cls-2" d="M372.5,329A36.5,36.5,0,1,1,409,292.5,36.54,36.54,0,0,1,372.5,329Z" transform="translate(-23.5 -23.5)"/><path class="cls-3" d="M372.5,262A30.5,30.5,0,1,1,342,292.5,30.53,30.53,0,0,1,372.5,262m0-12A42.5,42.5,0,1,0,415,292.5,42.5,42.5,0,0,0,372.5,250Z" transform="translate(-23.5 -23.5)"/><line class="cls-4" x1="120.14" y1="338.86" x2="258.86" y2="200.14"/><path class="cls-2" d="M162.5,380A36.5,36.5,0,1,1,199,343.5,36.54,36.54,0,0,1,162.5,380Z" transform="translate(-23.5 -23.5)"/><path class="cls-3" d="M162.5,313A30.5,30.5,0,1,1,132,343.5,30.53,30.53,0,0,1,162.5,313m0-12A42.5,42.5,0,1,0,205,343.5,42.5,42.5,0,0,0,162.5,301Z" transform="translate(-23.5 -23.5)"/></svg>